# xmcd
#
# Track frame offsets: 
#        150
#        10311
#        22782
#        37862
#        47119
#        59560
#        71770
#        88311
#        99839
#        111092
#        122914
#        136565
#        157710
#
# Disc length: 2284 seconds
#
# Revision: 1
# Processed by: cddbd v1.5.2PL0 Copyright (c) Steve Scherf et al.
# Submitted via: ExactAudioCopy v0.90b4
#
DISCID=9c08ea0d
DTITLE=The Playtones - Rock 'n' Roll Christmas Party
DYEAR=2010
DGENRE=Christmas
TTITLE0=Here Comes Santa Claus Again
TTITLE1=Fira Jul På Fyra Hjul
TTITLE2=Christmas Time Has Found Me
TTITLE3=Trucking Trees For Christmas
TTITLE4=Tomten Är Aldrig Sen
TTITLE5=Run Run Rudolph
TTITLE6=Ingen Jul Utan Dig
TTITLE7=Santa's On The Go
TTITLE8=All I Want For Christmas Dear Is You
TTITLE9=Christmas Bug
TTITLE10=Julnatt
TTITLE11=Julmedley
TTITLE12=Santa Looked A Lot Like Daddy
EXTD=
EXTT0=
EXTT1=
EXTT2=
EXTT3=
EXTT4=
EXTT5=
EXTT6=
EXTT7=
EXTT8=
EXTT9=
EXTT10=
EXTT11=
EXTT12=
PLAYORDER=
